<?xml version="1.0" encoding="utf-8"?>
<!-- Generator: Adobe Illustrator 18.1.1, SVG Export Plug-In . SVG Version: 6.00 Build 0)  -->
<svg version="1.1" id="Layer_1" xmlns="http://www.w3.org/2000/svg" xmlns:xlink="http://www.w3.org/1999/xlink" x="0px" y="0px"
	 viewBox="0 0 100 100" enable-background="new 0 0 100 100" xml:space="preserve">
<rect x="3.2" y="19.5" fill="none" stroke="#FFFFFF" stroke-width="2" stroke-linecap="round" stroke-linejoin="round" stroke-miterlimit="10" width="94" height="62.3"/>
<line fill="none" stroke="#FFFFFF" stroke-miterlimit="10" x1="3.2" y1="26.2" x2="97.2" y2="26.2"/>
<circle fill="none" stroke="#FFFFFF" stroke-miterlimit="10" cx="82.3" cy="23" r="1.6"/>
<circle fill="none" stroke="#FFFFFF" stroke-miterlimit="10" cx="87.1" cy="23" r="1.6"/>
<circle fill="none" stroke="#FFFFFF" stroke-miterlimit="10" cx="92.2" cy="23" r="1.6"/>
<rect x="31.5" y="52.5" fill="none" stroke="#FFFFFF" stroke-linecap="round" stroke-linejoin="round" stroke-miterlimit="10" width="37" height="22"/>
<path fill="none" stroke="#FFFFFF" stroke-miterlimit="10" d="M40.4,52v-9c0-5.3,4.3-9.6,9.6-9.6l0,0c5.3,0,9.6,4.3,9.6,9.6v9.1"/>
<path fill="none" stroke="#FFFFFF" stroke-width="0.9723" stroke-miterlimit="10" d="M43.3,52.1v-8.4c0-3.9,3-7.1,6.7-7.1l0,0
	c3.7,0,6.7,3.2,6.7,7.1v8.4"/>
<line fill="none" stroke="#FFFFFF" stroke-linecap="round" stroke-miterlimit="10" x1="31.5" y1="56.9" x2="50" y2="56.9"/>
<line fill="none" stroke="#FFFFFF" stroke-linecap="round" stroke-miterlimit="10" x1="31.5" y1="59.9" x2="47.6" y2="59.9"/>
<line fill="none" stroke="#FFFFFF" stroke-linecap="round" stroke-miterlimit="10" x1="31.5" y1="62.9" x2="45.6" y2="62.9"/>
</svg>
