<?xml version="1.0" standalone="no"?>
<!DOCTYPE svg PUBLIC "-//W3C//DTD SVG 1.1//EN" "http://www.w3.org/Graphics/SVG/1.1/DTD/svg11.dtd" >
<svg xmlns="http://www.w3.org/2000/svg">
<metadata></metadata>
<defs>
<font id="whitney-boldregular" horiz-adv-x="929" >
<font-face units-per-em="2048" ascent="1638" descent="-410" />
<missing-glyph horiz-adv-x="428" />
<glyph horiz-adv-x="2048" />
<glyph horiz-adv-x="2048" />
<glyph unicode="&#xd;" horiz-adv-x="428" />
<glyph unicode=" "  horiz-adv-x="428" />
<glyph unicode="&#x09;" horiz-adv-x="428" />
<glyph unicode="&#xa0;" horiz-adv-x="428" />
<glyph unicode="!" horiz-adv-x="604" d="M111 1413l100 -926l188 41l97 885h-385zM135 0h334v352h-334v-352z" />
<glyph unicode="&#x22;" horiz-adv-x="1064" d="M96 1384l82 -571l199 -43l90 614h-371zM598 1384l84 -571l197 -43l90 614h-371z" />
<glyph unicode="#" horiz-adv-x="1378" d="M78 289h213l-41 -264l186 -43l47 307h281l-45 -293h194l48 293h309l-41 260h-228l48 287h251v260h-213l43 264l-188 43l-49 -307h-281l47 293h-196l-47 -293h-307l43 -260h223l-43 -287h-254v-260zM522 543l47 299h287l-47 -299h-287z" />
<glyph unicode="$" horiz-adv-x="1124" d="M59 109q76 -39 157 -66t171 -41l-31 -219l150 -33l35 240h2q111 0 204 25.5t160.5 77.5t104.5 133t37 190q0 90 -25 156.5t-73 115.5t-121.5 86t-172.5 68l45 299q70 -14 133.5 -40t120.5 -61l43 252q-55 29 -117 51.5t-132 34.5l20 135l-149 33l-23 -151h-20 q-229 0 -355.5 -105.5t-126.5 -294.5q0 -90 25.5 -153.5t76 -110.5t124 -81t167.5 -62l-53 -350q-82 12 -164 41.5t-174 78.5zM373 1030q0 59 42 93t136 34h22l-41 -276q-94 33 -126.5 65.5t-32.5 83.5zM565 229l47 320q94 -35 127 -74t33 -94q0 -148 -207 -152z" />
<glyph unicode="%" horiz-adv-x="1830" d="M78 993q0 -98 26.5 -175t72.5 -128t109.5 -77.5t135.5 -26.5t134 26.5t108.5 78.5t73 129t26.5 175t-26.5 174t-73 127.5t-108.5 78t-134 26.5t-134.5 -26.5t-109.5 -79t-73.5 -128t-26.5 -174.5zM291 993q0 113 32.5 174.5t98.5 61.5q63 0 95 -61.5t32 -172.5t-31 -173 t-96 -62q-66 0 -98.5 61.5t-32.5 171.5zM381 27l182 -41l887 1372l-184 41zM1067 389q0 -98 26.5 -174t72.5 -127t108.5 -77.5t134.5 -26.5t134.5 26.5t109.5 78.5t73.5 128t26.5 174t-26.5 175t-72.5 128t-109.5 78t-135.5 27t-134.5 -27t-108.5 -79t-72.5 -129t-26.5 -175 zM1280 389q0 111 31.5 173.5t97.5 62.5q63 0 96 -61.5t33 -172.5t-31.5 -173t-97.5 -62q-63 0 -96 61.5t-33 171.5z" />
<glyph unicode="&#x26;" horiz-adv-x="1355" d="M55 365q0 -92 33 -164t94.5 -122t147.5 -76t192 -26q223 0 387 148l123 -137l346 45l-278 323q98 174 135 430l-262 58q-10 -80 -24.5 -146.5t-35.5 -124.5l-288 330q-45 49 -64.5 85t-19.5 77q0 45 30.5 75.5t94.5 30.5q70 0 145.5 -26.5t155.5 -69.5l45 275 q-70 39 -166 64.5t-213 25.5q-195 0 -305.5 -96.5t-110.5 -258.5q0 -92 28.5 -159.5t88.5 -143.5q-125 -72 -202 -170t-77 -247zM375 401q0 59 28.5 107.5t88.5 93.5l266 -299q-84 -78 -183 -78q-94 0 -147 49.5t-53 126.5z" />
<glyph unicode="'" horiz-adv-x="569" d="M96 1384l82 -571l207 -43l88 614h-377z" />
<glyph unicode="(" horiz-adv-x="835" d="M92 635q0 -141 34 -257t95.5 -215.5t147.5 -186.5t190 -169l238 56q-94 98 -162 187t-112 181.5t-64.5 191.5t-20.5 216q0 109 18.5 199t55.5 166.5t92 143t129 130.5l-31 209q-293 -135 -451.5 -343t-158.5 -509z" />
<glyph unicode=")" horiz-adv-x="835" d="M39 1423q94 -98 162.5 -188t112.5 -182t64.5 -190.5t20.5 -215.5q0 -109 -19.5 -199t-57 -166.5t-93 -143t-127.5 -130.5l31 -211q145 68 259 154t192 190.5t117.5 231t39.5 278.5q0 139 -32.5 255t-94 215.5t-147.5 186.5t-191 171z" />
<glyph unicode="*" horiz-adv-x="897" d="M63 1118l220 -141l-97 -244l62 -41l201 164l198 -164l64 41l-97 244l220 141l-23 72l-262 -14l-62 249h-79l-60 -249l-262 14z" />
<glyph unicode="+" horiz-adv-x="1171" d="M111 571h350v-362h250v362h350v242h-350v363h-250v-363h-350v-242z" />
<glyph unicode="," horiz-adv-x="528" d="M45 -260l184 -43l256 655h-350z" />
<glyph unicode="-" horiz-adv-x="724" d="M84 449h559v294h-559v-294z" />
<glyph unicode="." horiz-adv-x="528" d="M100 0h332v352h-332v-352z" />
<glyph unicode="/" horiz-adv-x="1085" d="M-74 -205l254 -55l881 1636l-254 56z" />
<glyph unicode="0" horiz-adv-x="1298" d="M74 692q0 -174 42 -308t117.5 -225t182 -138.5t235.5 -47.5t234.5 47.5t181.5 138.5t117 225t41 308t-41 308.5t-117 225.5t-181.5 138t-234.5 47t-235.5 -47t-182 -138t-117.5 -225.5t-42 -308.5zM414 692q0 223 58 341t179 118t178.5 -118t57.5 -341t-57.5 -341 t-178.5 -118t-179 118t-58 341z" />
<glyph unicode="1" horiz-adv-x="833" d="M35 1223l37 -267l278 109v-1065h344v1386h-305z" />
<glyph unicode="2" horiz-adv-x="1130" d="M82 0h977l-43 270h-524l276 269q63 59 112.5 114.5t83 110.5t51 114.5t17.5 131.5q0 186 -123 291.5t-338 105.5q-147 0 -257.5 -39t-200.5 -98l41 -291q90 66 182 103.5t184 37.5q86 0 132 -38t46 -109q0 -70 -34.5 -125t-104.5 -127l-477 -477v-244z" />
<glyph unicode="3" horiz-adv-x="1116" d="M63 82q88 -49 204 -79t251 -30q113 0 208 27t165 79t109.5 130t39.5 178q0 137 -70.5 217t-195.5 121q106 39 175 113.5t69 208.5q0 162 -126 263t-360 101q-137 0 -251.5 -36t-196.5 -91l43 -262q78 53 168 84t186 31q199 0 199 -138q0 -72 -61.5 -115.5t-208.5 -43.5 h-129l41 -250h84q164 0 232.5 -44t68.5 -134q0 -80 -58.5 -122t-161.5 -42q-104 0 -199 27.5t-182 74.5z" />
<glyph unicode="4" horiz-adv-x="1249" d="M53 276h641v-276h322v276h194v232h-194v878h-379l-584 -897v-213zM340 508l354 549v-549h-354z" />
<glyph unicode="5" horiz-adv-x="1136" d="M70 68q92 -41 197.5 -68t232.5 -27q123 0 226 32t178 93.5t117 152.5t42 212q0 104 -34 183t-93 132t-143 81t-185 28q-66 0 -114 -7.5t-82 -17.5l16 246h602l-43 276h-817l-47 -751l211 -47q41 16 88 28.5t110 12.5q102 0 156.5 -47.5t54.5 -133.5q0 -96 -69.5 -145 t-177.5 -49q-104 0 -199.5 29.5t-181.5 70.5z" />
<glyph unicode="6" horiz-adv-x="1181" d="M74 559q0 -143 39 -252.5t109.5 -183.5t167.5 -112t216 -38q109 0 203 35t162.5 98.5t108.5 152.5t40 200q0 106 -30.5 185t-85 131t-126 78t-151.5 26q-98 0 -178 -26t-156 -75q51 147 188.5 233.5t333.5 131.5l-43 270q-172 -35 -317 -102.5t-252.5 -173t-168 -249 t-60.5 -329.5zM381 557q57 39 112.5 59.5t114.5 20.5q195 0 195 -199q0 -102 -53.5 -159.5t-143.5 -57.5q-96 0 -159.5 81t-65.5 255z" />
<glyph unicode="7" horiz-adv-x="1107" d="M59 1384l43 -284h580l-485 -1057l325 -57l512 1134v264h-975z" />
<glyph unicode="8" horiz-adv-x="1206" d="M72 360q0 -78 33.5 -148.5t100 -123.5t166 -84t230.5 -31q123 0 221.5 31t167 84t105.5 128t37 165q0 127 -62.5 209t-187.5 143q98 61 153.5 141t55.5 181q0 78 -34 143.5t-95.5 112.5t-150.5 73.5t-200 26.5q-106 0 -197 -25.5t-156.5 -73.5t-103.5 -119t-38 -159 q0 -104 53 -180t149 -133q-117 -66 -182 -157t-65 -204zM385 393q0 70 40.5 126.5t106.5 101.5q80 -33 134.5 -59.5t87 -54.5t46 -58.5t13.5 -71.5q0 -78 -59.5 -124t-145.5 -46q-96 0 -159.5 49t-63.5 137zM424 1040q0 66 46 109t130 43q86 0 136 -42t50 -114 q0 -63 -34 -112.5t-93 -92.5q-133 51 -184 97.5t-51 111.5z" />
<glyph unicode="9" horiz-adv-x="1181" d="M61 915q0 -109 30 -189.5t84 -133.5t128 -79t160 -26q88 0 166.5 27t154.5 74q-53 -143 -192 -225t-342 -121l39 -271q178 33 327.5 100.5t259 173t171 250t61.5 330.5q0 143 -39 253t-109.5 183.5t-169 111.5t-217.5 38q-109 0 -203 -35t-162.5 -99.5t-107.5 -155.5 t-39 -206zM379 938q0 109 54 167t142 58q98 0 162 -84t64 -270v-4q-113 -76 -226 -76q-197 0 -196 209z" />
<glyph unicode=":" horiz-adv-x="546" d="M109 0h331v348h-331v-348zM109 655h331v349h-331v-349z" />
<glyph unicode=";" horiz-adv-x="546" d="M35 -260l186 -43l254 651h-350zM121 655h332v349h-332v-349z" />
<glyph unicode="&#x3c;" horiz-adv-x="1171" d="M117 584l915 -455v268l-610 297l610 295v266l-915 -454v-217z" />
<glyph unicode="=" horiz-adv-x="1208" d="M150 324h911v243h-911v-243zM150 817h911v246h-911v-246z" />
<glyph unicode="&#x3e;" horiz-adv-x="1171" d="M139 129l916 455v217l-916 454v-268l611 -297l-611 -293v-268z" />
<glyph unicode="?" horiz-adv-x="1036" d="M53 1296l43 -286q90 63 189.5 104t197.5 41q86 0 130 -36t44 -99q0 -74 -60 -124t-212 -95l-63 -21l22 -311l203 47l6 68q211 68 321.5 176t110.5 287q0 186 -120 289.5t-337 103.5q-154 0 -268.5 -41t-206.5 -103zM268 0h332v352h-332v-352z" />
<glyph unicode="@" horiz-adv-x="1710" d="M78 389q0 -168 48 -295t137 -211t217 -127t288 -43q137 0 254 28t203 69l-13 73q-92 -47 -202.5 -72.5t-233.5 -25.5q-133 0 -244.5 34t-192.5 106.5t-126 187t-45 278.5q0 178 62.5 334t169 269.5t245.5 179t293 65.5q131 0 241.5 -37t190.5 -110.5t125 -187t45 -267.5 q0 -199 -68.5 -307.5t-171.5 -108.5q-70 0 -98 34t-28 79q0 29 2 55.5t6 48.5l67 439q-72 29 -158.5 48t-177.5 19q-98 0 -184 -42t-150.5 -118.5t-101.5 -182t-37 -234.5q0 -131 64.5 -200t159.5 -69q76 0 142 41t140 127q29 -78 104.5 -123t174.5 -45q96 0 172 38 t128 108.5t78.5 171t26.5 223.5q0 160 -49 286t-139 212t-216 131t-280 45q-178 0 -336.5 -75t-276.5 -202t-186.5 -295t-68.5 -352zM686 410q0 72 17.5 135t48 109t70.5 73t85 27q23 0 43.5 -4.5t36.5 -8.5l-49 -307q-59 -74 -99 -102.5t-77 -28.5q-35 0 -55.5 23.5 t-20.5 83.5z" />
<glyph unicode="A" horiz-adv-x="1437" d="M27 0h342l98 293h485l107 -307l352 57l-491 1376h-385zM549 567l160 492l159 -492h-319z" />
<glyph unicode="B" horiz-adv-x="1204" d="M129 0h471q254 0 398.5 101.5t144.5 306.5q0 143 -71 223t-185 117q86 39 144.5 110.5t58.5 188.5q0 174 -119 270t-361 96h-481v-1413zM461 252v364h125q111 0 169 -47t58 -139q0 -90 -58.5 -134t-164.5 -44h-129zM461 842v319h125q102 0 147 -40.5t45 -112.5 q0 -78 -51 -122t-149 -44h-117z" />
<glyph unicode="C" horiz-adv-x="1239" d="M78 705q0 -166 47 -301.5t135 -230.5t216 -146.5t288 -51.5q117 0 216 29t185 76l-45 287q-80 -45 -157.5 -72t-163.5 -27q-80 0 -147.5 29t-118 84t-78 137t-27.5 189q0 209 96.5 323.5t255.5 114.5q92 0 171 -33t145 -82l49 316q-78 43 -174.5 67.5t-216.5 24.5 q-152 0 -276 -53.5t-213 -149.5t-138 -231.5t-49 -298.5z" />
<glyph unicode="D" horiz-adv-x="1443" d="M129 0h496q178 0 316 51t232.5 145.5t142.5 224.5t48 288t-48 287.5t-142.5 222t-234.5 143.5t-325 51h-485v-1413zM479 272v869h127q90 0 165 -25.5t128 -80t83 -136t30 -192.5q0 -115 -29 -197t-81 -134t-127 -78t-169 -26h-127z" />
<glyph unicode="E" horiz-adv-x="1095" d="M129 0h899v281h-555v305h455l-45 288h-410v259h537v280h-881v-1413z" />
<glyph unicode="F" horiz-adv-x="1030" d="M129 0h348v537h418l-49 297h-369v286h498v293h-846v-1413z" />
<glyph unicode="G" horiz-adv-x="1396" d="M78 705q0 -164 46 -298.5t134 -230.5t218 -149.5t298 -53.5q147 0 276 39t240 111v688h-592l41 -260h246v-252q-43 -23 -87 -34t-103 -11q-92 0 -161 32.5t-115 93t-68.5 143.5t-22.5 184q0 98 22.5 180t67.5 140t112.5 91t160.5 33q111 0 203.5 -35t172.5 -86l47 305 q-86 47 -193.5 76t-238.5 29q-164 0 -294 -53.5t-221 -150.5t-140 -232.5t-49 -298.5z" />
<glyph unicode="H" horiz-adv-x="1447" d="M129 0h350v578h490v-578h350v1413h-350v-528h-490v528h-350v-1413z" />
<glyph unicode="I" horiz-adv-x="624" d="M137 0h350v1413h-350v-1413z" />
<glyph unicode="J" horiz-adv-x="870" d="M39 299l47 -295q29 -8 82 -13t113 -5q100 0 187 24.5t150.5 77.5t99.5 137t36 205v983h-353v-928q0 -119 -52 -164t-144 -45q-59 0 -95 6.5t-71 16.5z" />
<glyph unicode="K" horiz-adv-x="1331" d="M129 0h350v657l475 -671l377 57l-518 717l500 653h-389l-445 -604v604h-350v-1413z" />
<glyph unicode="L" horiz-adv-x="993" d="M129 0h832l-48 303h-434v1110h-350v-1413z" />
<glyph unicode="M" horiz-adv-x="1824" d="M88 0h305l62 940l268 -942h328l268 942l61 -940h357l-103 1413h-440l-276 -973l-275 973h-453z" />
<glyph unicode="N" horiz-adv-x="1443" d="M129 0h326v846l557 -846h303v1413h-326v-790l-520 790h-340v-1413z" />
<glyph unicode="O" horiz-adv-x="1505" d="M78 705q0 -164 48 -298.5t136 -230.5t212 -149.5t276 -53.5q154 0 279.5 53.5t213.5 150.5t136 232.5t48 299.5t-48 298t-135 230t-212 149.5t-278 53.5q-154 0 -279 -53.5t-213 -150.5t-136 -232.5t-48 -298.5zM428 707q0 211 85 334.5t239 123.5t238.5 -123.5 t84.5 -334.5t-85 -335t-238 -124q-154 0 -239 124t-85 335z" />
<glyph unicode="P" horiz-adv-x="1175" d="M129 0h350v469h90q129 0 233.5 30.5t179.5 91t116 150.5t41 211q0 229 -148.5 345t-406.5 116h-455v-1413zM475 733v416h88q236 0 236 -203q0 -111 -62.5 -162t-179.5 -51h-82z" />
<glyph unicode="Q" horiz-adv-x="1505" d="M78 705q0 -281 123 -453t368 -260l793 -285l65 299l-329 105q154 82 241.5 238.5t87.5 379.5q0 162 -48 293t-136 224t-213 143.5t-276 50.5q-154 0 -278 -53.5t-213 -150.5t-137 -232.5t-48 -298.5zM428 705q0 102 21.5 187t63.5 145.5t101.5 94t137.5 33.5 q76 0 136 -33.5t102 -94t63.5 -145.5t21.5 -187t-21.5 -188.5t-62.5 -148t-101.5 -95t-137.5 -33.5q-76 0 -136.5 33.5t-101.5 95t-63.5 147.5t-22.5 189z" />
<glyph unicode="R" horiz-adv-x="1259" d="M129 0h348v485h96l310 -499l358 59l-338 520q127 55 194.5 154.5t67.5 247.5q0 219 -142 332.5t-400 113.5h-494v-1413zM475 737v412h113q115 0 174 -52.5t59 -150.5q0 -102 -62.5 -155.5t-174.5 -53.5h-109z" />
<glyph unicode="S" horiz-adv-x="1132" d="M72 90q109 -49 229.5 -77.5t263.5 -28.5q104 0 196.5 25.5t161 79.5t108.5 138t40 199q0 84 -23.5 148.5t-75.5 115.5t-134 94t-197 86q-66 25 -107.5 45.5t-65.5 40t-33 41t-9 47.5q0 49 39 80t119 31q82 0 177 -29.5t191 -85.5l54 295q-92 45 -190.5 70t-235.5 25 q-102 0 -190.5 -27t-153 -80t-102.5 -131t-38 -180q0 -88 23.5 -151.5t73 -113t126 -89.5t183.5 -80q74 -29 121 -51.5t73.5 -44t35.5 -44t9 -53.5q0 -63 -47 -95t-123 -32q-106 0 -222 36t-226 95z" />
<glyph unicode="T" horiz-adv-x="1247" d="M51 1116h391v-1116h353v1116h424l-50 297h-1118v-297z" />
<glyph unicode="U" horiz-adv-x="1409" d="M113 559q0 -147 43 -256.5t120.5 -182.5t186 -108t237.5 -35t238 36t188.5 109t124.5 182.5t45 256.5v852h-352v-856q0 -135 -59.5 -210t-179.5 -75q-119 0 -179.5 76t-60.5 213v852h-352v-854z" />
<glyph unicode="V" horiz-adv-x="1417" d="M27 1370l495 -1376h359l510 1419h-361l-307 -977l-315 991z" />
<glyph unicode="W" horiz-adv-x="2027" d="M39 1368l373 -1368h352l244 911l243 -911h355l385 1413h-346l-203 -885l-230 885h-352l-229 -885l-213 899z" />
<glyph unicode="X" horiz-adv-x="1353" d="M25 0h358l279 483l290 -497l375 59l-33 53q-32 52 -81.5 129.5t-107.5 168.5t-107.5 169t-81.5 129l-33 51l411 668h-360l-244 -432l-26 47q-27 47 -64 111.5t-76 132t-63.5 109.5t-26.5 46l-373 -59l410 -649z" />
<glyph unicode="Y" horiz-adv-x="1376" d="M16 1376l488 -860v-516h352v520l508 893h-367l-301 -573l-307 587z" />
<glyph unicode="Z" horiz-adv-x="1255" d="M82 0h1106l-45 279h-633l659 880v254h-1058l43 -278h587l-659 -881v-254z" />
<glyph unicode="[" horiz-adv-x="856" d="M145 -213h639l-32 190h-310v1248h332v188h-629v-1626z" />
<glyph unicode="\" horiz-adv-x="1085" d="M23 1376l880 -1636l256 53l-880 1639z" />
<glyph unicode="]" horiz-adv-x="856" d="M72 1413l30 -188h312v-1248h-332v-190h629v1626h-639z" />
<glyph unicode="^" d="M119 1120h196l152 119l158 -127l182 35l-197 274h-282z" />
<glyph unicode="_" d="M-4 -70v-143h938v143h-938z" />
<glyph unicode="`" d="M197 1368l299 -248h202l-123 310z" />
<glyph unicode="a" horiz-adv-x="1038" d="M57 258q0 -137 76 -207.5t197 -70.5q104 0 179 39.5t136 105.5l21 -125h274v672q0 193 -102.5 270.5t-311.5 77.5q-123 0 -222 -21.5t-185 -56.5l37 -233q80 35 158.5 55t164.5 20q152 0 152 -127v-18q-295 -27 -434.5 -116t-139.5 -265zM362 299q0 33 12.5 62.5t43.5 54 t82 43t131 30.5v-213q-85 -75 -170 -75h-2q-43 0 -70 25.5t-27 72.5z" />
<glyph unicode="b" horiz-adv-x="1107" d="M106 59q88 -35 198 -53t233 -18q117 0 210 31.5t159.5 98t102 169t35.5 241.5q0 127 -27.5 220.5t-75.5 155t-114.5 91t-142.5 29.5q-90 0 -155.5 -41t-112.5 -90v586l-310 -49v-1371zM416 254v397q39 43 80 70t90 27q66 0 107.5 -56.5t41.5 -183.5q0 -150 -57 -211 t-150 -61q-35 0 -58.5 4t-53.5 14z" />
<glyph unicode="c" horiz-adv-x="923" d="M57 494q0 -121 35 -216.5t99.5 -161t153.5 -100t198 -34.5q90 0 166.5 21.5t152.5 68.5l-37 252q-66 -41 -120 -59.5t-109 -18.5q-94 0 -159.5 63.5t-65.5 192.5q0 127 60.5 189.5t154.5 62.5q61 0 114.5 -17.5t112.5 -56.5l41 264q-61 35 -134 55.5t-165 20.5 q-102 0 -192.5 -33t-158 -98.5t-107.5 -163.5t-40 -231z" />
<glyph unicode="d" horiz-adv-x="1114" d="M61 473q0 -127 28 -220t77 -153.5t114.5 -90t143.5 -29.5q98 0 168 47t121 104l20 -131h275v1479l-310 -49v-453q-43 16 -93 24.5t-120 8.5q-84 0 -159.5 -30t-135 -94.5t-94.5 -167t-35 -245.5zM373 496q0 145 51 208.5t129 63.5q49 0 80 -6t65 -23v-383 q-41 -45 -82 -73.5t-90 -28.5q-66 0 -109.5 56.5t-43.5 185.5z" />
<glyph unicode="e" horiz-adv-x="1034" d="M57 498q0 -135 38 -232.5t106.5 -161t164 -94t207.5 -30.5q119 0 218.5 29.5t181.5 82.5l-31 217q-84 -47 -165 -75.5t-165 -28.5q-102 0 -167.5 50t-77.5 169h602q4 12 5 34.5t1 45.5q0 109 -26.5 204t-81 165.5t-138.5 110.5t-199 40q-102 0 -189 -36t-149.5 -104.5 t-98.5 -165.5t-36 -220zM365 594q8 117 50 173t107 56q142 0 158 -229h-315z" />
<glyph unicode="f" horiz-adv-x="698" d="M27 752h139v-752h309v752h219l-37 252h-182v94q0 123 123 123q33 0 60.5 -2.5t50.5 -6.5l-37 238q-27 4 -57.5 7t-67.5 3q-174 0 -277.5 -75.5t-103.5 -256.5v-124h-139v-252z" />
<glyph unicode="g" horiz-adv-x="1093" d="M8 -133q0 -57 36 -102.5t100.5 -76t152.5 -46t195 -15.5q121 0 223 25.5t178 73t118 114t42 148.5q0 115 -85 167t-237 68l-184 13q-51 6 -82 11t-48.5 11t-23.5 13.5t-6 17.5q0 20 25 45q45 -6 94 -6q86 0 160.5 23.5t132 67.5t90.5 108.5t33 146.5q0 53 -19 106l27 1 q28 1 61 1t61 1l27 1l-39 230l-237 -90q-57 45 -134 70.5t-173 25.5q-90 0 -168 -24.5t-134.5 -70.5t-88 -113t-31.5 -148q0 -98 49 -173t143 -118q-149 -83 -149 -179q0 -62 55 -112q-84 -47 -124 -98.5t-40 -116.5zM258 -94q0 53 59 112q37 -6 70 -11t88 -9l150 -12 q82 -10 113.5 -27.5t31.5 -52.5q0 -49 -65.5 -84t-188.5 -35q-135 0 -196.5 33t-61.5 86zM354 668q0 72 38 121t106 49q70 0 108.5 -46t38.5 -118t-38 -119t-109 -47q-68 0 -106 44t-38 116z" />
<glyph unicode="h" horiz-adv-x="1099" d="M106 0h310v659q41 41 83 66t87 25q55 0 78.5 -34t23.5 -87v-629h311v713q0 147 -71.5 229t-212.5 82q-92 0 -164 -42t-135 -103v600l-310 -49v-1430z" />
<glyph unicode="i" horiz-adv-x="536" d="M92 1300q0 -76 51.5 -120.5t124.5 -44.5q76 0 126 44.5t50 120.5q0 78 -50 123t-126 45q-74 0 -125 -45t-51 -123zM113 0h311v1004h-311v-1004z" />
<glyph unicode="j" horiz-adv-x="538" d="M-74 -123l37 -242q16 -4 47 -6t64 -2q78 0 142.5 18.5t110.5 59.5t71.5 106.5t25.5 159.5v1033h-311v-1008q0 -74 -30 -100.5t-83 -26.5q-23 0 -40 2t-34 6zM92 1300q0 -76 51.5 -120.5t124.5 -44.5q76 0 126 44.5t50 120.5q0 78 -50 123t-126 45q-74 0 -125 -45 t-51 -123z" />
<glyph unicode="k" horiz-adv-x="1034" d="M106 0h310v467l291 -481l321 45l-328 516l316 457h-332l-268 -412v887l-310 -49v-1430z" />
<glyph unicode="l" horiz-adv-x="536" d="M113 0h311v1479l-311 -49v-1430z" />
<glyph unicode="m" horiz-adv-x="1660" d="M106 0h310v662q41 41 81 64.5t83 23.5q53 0 75.5 -34t22.5 -87v-629h309v662q41 41 82 64.5t82 23.5q53 0 75.5 -34t22.5 -87v-629h312v713q0 147 -72 229t-213 82q-94 0 -170 -45t-143 -113q-29 68 -87.5 113t-162.5 45q-98 0 -171 -44t-141 -114l-22 138h-273v-1004z " />
<glyph unicode="n" horiz-adv-x="1099" d="M106 0h310v659q41 41 83 66t87 25q55 0 78.5 -34t23.5 -87v-629h311v713q0 147 -71.5 229t-212.5 82q-96 0 -171 -46t-143 -112l-22 138h-273v-1004z" />
<glyph unicode="o" horiz-adv-x="1079" d="M57 500q0 -121 36 -217.5t100.5 -164t151.5 -103t192 -35.5q104 0 193 36.5t153.5 104t101.5 164t37 217.5t-37 217t-101.5 163.5t-152.5 104.5t-192 37t-192.5 -37t-153 -104.5t-100.5 -164.5t-36 -218zM356 502q0 123 46.5 195.5t136.5 72.5t137 -73.5t47 -196.5 t-47 -197t-137 -74q-88 0 -135.5 75t-47.5 198z" />
<glyph unicode="p" horiz-adv-x="1114" d="M106 -381l310 47v359q43 -14 93 -24.5t118 -10.5q82 0 158.5 30.5t135 96t93.5 167t35 244.5q0 127 -28 220.5t-76 155t-113.5 91t-143.5 29.5q-49 0 -90 -13.5t-77 -35t-65.5 -49t-56.5 -56.5l-20 134h-273v-1385zM416 264v381q39 47 80 75t92 28q66 0 108.5 -56.5 t42.5 -183.5q0 -147 -52 -211t-130 -64q-47 0 -77.5 7.5t-63.5 23.5z" />
<glyph unicode="q" horiz-adv-x="1107" d="M61 473q0 -127 28 -220t76 -153.5t114.5 -90t144.5 -29.5q90 0 154.5 40.5t113.5 88.5v-490l309 47v1278q-90 33 -199.5 52.5t-232.5 19.5q-115 0 -209 -33t-160.5 -99.5t-102.5 -169t-36 -241.5zM373 496q0 147 56 208.5t149 61.5q35 0 59.5 -4t54.5 -14v-398 q-41 -41 -82 -68.5t-88 -27.5q-66 0 -107.5 56.5t-41.5 185.5z" />
<glyph unicode="r" horiz-adv-x="772" d="M106 0h310v557q57 61 141 102.5t197 49.5l-52 315q-111 -8 -179 -70.5t-113 -148.5l-33 199h-271v-1004z" />
<glyph unicode="s" horiz-adv-x="950" d="M66 84q78 -41 185 -70.5t228 -29.5q201 0 306.5 82.5t105.5 242.5q0 70 -18.5 119t-61.5 86t-111.5 65.5t-169.5 55.5q-53 14 -85.5 26.5t-51 23.5t-26 23.5t-7.5 28.5q0 29 26 47.5t81 18.5q72 0 160 -24.5t170 -69.5l39 235q-78 35 -173.5 54.5t-197.5 19.5 q-186 0 -285.5 -85t-99.5 -226q0 -72 20.5 -121t64.5 -86t111.5 -63.5t161.5 -51.5q53 -12 86 -24.5t51.5 -24.5t25.5 -26.5t7 -33.5q0 -75 -124 -75h-3q-86 0 -187 31.5t-192 86.5z" />
<glyph unicode="t" horiz-adv-x="743" d="M29 752h133v-433q0 -96 26.5 -160.5t74.5 -102.5t115.5 -54t147.5 -16q61 0 101.5 5t77.5 15l-39 254q-37 -10 -74 -10q-123 0 -123 119v383h229l-39 252h-190v346l-307 -47v-299h-133v-252z" />
<glyph unicode="u" horiz-adv-x="1099" d="M100 289q0 -147 72 -228t213 -81q94 0 169 45t144 112l23 -137h272v1004h-309v-662q-41 -41 -83 -65.5t-87 -24.5q-55 0 -79.5 35t-24.5 88v629h-310v-715z" />
<glyph unicode="v" horiz-adv-x="1038" d="M20 979l342 -983h310l350 1008h-301l-182 -621l-187 635z" />
<glyph unicode="w" horiz-adv-x="1484" d="M25 979l274 -979h297l145 573l148 -573h295l280 1004h-286l-134 -584l-143 584h-278l-142 -586l-137 600z" />
<glyph unicode="x" horiz-adv-x="1015" d="M31 0h295l166 295l172 -309l321 39l-307 507l291 472h-293l-154 -271l-155 285l-322 -39l291 -483z" />
<glyph unicode="y" horiz-adv-x="1044" d="M18 979l365 -981l-12 -31q-25 -53 -68 -74.5t-96 -21.5q-45 0 -71.5 4t-51.5 12l39 -247q23 -4 46.5 -8.5t70.5 -4.5q82 0 147.5 18.5t117.5 59.5t92 108.5t75 166.5l356 1024h-299l-184 -619l-195 633z" />
<glyph unicode="z" horiz-adv-x="956" d="M59 0h846l-39 242h-424l439 526v236h-803l37 -242h383l-439 -529v-233z" />
<glyph unicode="{" horiz-adv-x="1036" d="M51 696l31 -190h51q102 0 160.5 -39t58.5 -141q0 -68 -13 -133.5t-13 -137.5q0 -125 79.5 -196.5t239.5 -71.5h316l-31 190h-160q-72 0 -105.5 31t-33.5 86q0 61 13 118.5t13 125.5q0 115 -60 175t-173 85v4q113 25 173 85.5t60 174.5q0 70 -13 126t-13 118 q0 119 139 119h182v188h-307q-160 0 -239.5 -71.5t-79.5 -196.5q0 -72 13 -136.5t13 -134.5q0 -102 -57 -140t-160 -38h-84z" />
<glyph unicode="|" horiz-adv-x="614" d="M178 -381l260 41v1819l-260 -41v-1819z" />
<glyph unicode="}" horiz-adv-x="1036" d="M74 1413l28 -188h164q139 0 140 -117q0 -61 -14.5 -118.5t-14.5 -127.5q0 -115 60.5 -175t172.5 -85v-4q-113 -25 -173 -85t-60 -175q0 -68 14.5 -126t14.5 -120q0 -115 -140 -115h-184v-190h307q160 0 240 71.5t80 196.5q0 72 -14.5 137.5t-14.5 133.5q0 102 58.5 141 t160.5 39h84l-31 190h-51q-104 0 -162.5 38t-58.5 140q0 70 14.5 134.5t14.5 136.5q0 125 -80 196.5t-240 71.5h-315z" />
<glyph unicode="~" horiz-adv-x="837" d="M76 465l145 -31q12 53 27.5 71.5t38.5 18.5t48 -9t85 -34q43 -18 74.5 -29.5t70.5 -11.5q78 0 126 63.5t71 221.5l-146 35q-14 -53 -28.5 -72.5t-36.5 -19.5q-25 0 -50.5 8t-84.5 35q-43 18 -74 29.5t-70 11.5q-78 0 -127 -63.5t-69 -223.5z" />
<glyph unicode="&#xa1;" horiz-adv-x="604" d="M111 0h385l-103 928l-188 -43zM135 1061h334v352h-334v-352z" />
<glyph unicode="&#xa2;" horiz-adv-x="1011" d="M76 690q0 -201 102.5 -330t276.5 -165l-29 -181l156 -34l30 200q92 4 169 24.5t155 63.5l-31 238q-78 -43 -142.5 -60.5t-125.5 -19.5l80 522q47 -10 90 -27.5t84 -39.5l37 247q-72 41 -162 60l31 180l-156 35l-31 -201h-6q-113 0 -209 -33.5t-166.5 -99t-111.5 -161 t-41 -218.5zM369 686q0 127 56 194.5t163 75.5l-80 -512q-139 57 -139 242z" />
<glyph unicode="&#xa3;" horiz-adv-x="1128" d="M96 0h961l-43 266h-568l91 291h376l-41 260h-254l44 137q29 94 74.5 133t125.5 39q41 0 75 -5t71 -17l41 276q-41 14 -95.5 22.5t-126.5 8.5q-186 0 -296.5 -85t-168.5 -273l-73 -236h-193v-260h111l-111 -350v-207z" />
<glyph unicode="&#xa4;" horiz-adv-x="1247" d="M39 623l24 -158h160q47 -236 197.5 -362t406.5 -126q115 0 203 24t170 65l-43 264q-70 -39 -138.5 -59.5t-141.5 -20.5q-233 0 -302 215h414v158h-440q-2 16 -2 34v35v43t2 43h455l-27 158h-397q70 199 274 199q86 0 149.5 -20.5t129.5 -59.5l45 272q-72 39 -159 59.5 t-194 20.5q-119 0 -216 -34t-172 -95t-127 -148.5t-79 -193.5h-180v-158h156q-2 -23 -3 -44t-1 -44v-35q0 -16 2 -32h-166z" />
<glyph unicode="&#xa5;" horiz-adv-x="1312" d="M16 1352l418 -742h-274v-155h317v-133h-327l24 -156h303v-166h336v166h320v156h-320v133h330l-25 155h-262l442 774h-352l-280 -565l-291 580z" />
<glyph unicode="&#xa6;" horiz-adv-x="1024" d="M51 -410h922v2048h-922v-2048z" />
<glyph unicode="&#xa7;" horiz-adv-x="1165" d="M66 637q0 -109 71.5 -164t235.5 -96l178 -43q68 -18 94.5 -34.5t26.5 -47.5q0 -29 -25.5 -47.5t-79.5 -18.5q-129 0 -280 64l-33 -213q78 -27 154.5 -40t177.5 -13q80 0 148.5 19.5t118.5 56t77.5 92t27.5 127.5q0 127 -80.5 189t-230.5 99l-158 39q-90 20 -122.5 43 t-32.5 62q0 23 7 43t17 41l-225 36q-31 -39 -49 -91t-18 -103zM207 1106q0 -127 81 -189.5t230 -99.5l160 -39q90 -23 123 -44t33 -60q0 -23 -8.5 -43.5t-18.5 -40.5l227 -37q29 39 48.5 91.5t19.5 103.5q0 109 -72 164t-237 96l-177 43q-70 18 -95 34.5t-25 47.5 q0 29 24.5 47t79.5 18q127 0 279 -63l32 213q-76 27 -152.5 40t-178.5 13q-80 0 -149 -19.5t-119 -56.5t-77.5 -92t-27.5 -127z" />
<glyph unicode="&#xa8;" d="M129 1122h266v269h-266v-269zM535 1122h266v269h-266v-269z" />
<glyph unicode="&#xa9;" horiz-adv-x="1636" d="M111 705q0 -164 51 -298.5t144 -230.5t223 -149.5t288 -53.5q156 0 287 53.5t224 150.5t145.5 232.5t52.5 299.5t-51.5 298t-144.5 230t-223 149.5t-288 53.5t-288 -53.5t-223 -150.5t-145 -232.5t-52 -298.5zM201 707q0 160 47 282.5t130 206.5t195.5 127t245.5 43 q129 0 242 -43t195.5 -127t131 -206.5t48.5 -282.5t-47.5 -283t-130 -207t-195.5 -127t-244 -43t-243.5 43t-195.5 127t-131 207t-48 283zM442 713q0 -92 29 -169t83 -132.5t131 -85t175 -29.5q139 -1 256 65l-29 185q-59 -35 -107 -48.5t-95 -13.5q-96 0 -150.5 62.5 t-54.5 167.5q0 98 49 161.5t141 63.5q55 0 101.5 -15.5t99.5 -50.5l31 201q-53 25 -113.5 39t-132.5 14q-92 0 -168 -29.5t-130 -85t-85 -132t-31 -168.5z" />
<glyph unicode="&#xaa;" horiz-adv-x="821" d="M96 891q0 -82 50.5 -130t134.5 -48q66 0 119 25.5t100 68.5l14 -82h186v442q0 121 -69.5 174.5t-208.5 53.5q-86 0 -156.5 -15.5t-128.5 -38.5l23 -151q53 23 106 36t111 13q55 0 83.5 -19.5t28.5 -68.5v-12q-203 -16 -298 -73.5t-95 -174.5zM104 455h615l-25 149h-590 v-149zM301 924q0 37 41 68.5t147 45.5v-125q-61 -55 -127 -55q-61 0 -61 66z" />
<glyph unicode="&#xab;" horiz-adv-x="1169" d="M45 502l350 -518l201 41l-211 477l223 502h-223zM535 502l348 -518l200 41l-209 477l222 502h-222z" />
<glyph unicode="&#xac;" horiz-adv-x="1171" d="M111 563h950v258h-950v-258z" />
<glyph unicode="&#xad;" horiz-adv-x="724" d="M84 449h559v294h-559v-294z" />
<glyph unicode="&#xae;" horiz-adv-x="1153" d="M111 963q0 -106 33.5 -194.5t95 -151t147.5 -96.5t188 -34q100 0 186.5 35t148 97.5t96 150t34.5 193.5t-33.5 194t-95 150.5t-147.5 97.5t-189 35q-102 0 -187 -35t-146.5 -98.5t-96 -150.5t-34.5 -193zM178 963q0 100 31 179t85 133t126 81.5t155 27.5q82 0 155 -27.5 t127 -81.5t85 -133t31 -179t-31 -178t-84 -132.5t-126 -82t-157 -27.5t-155.5 27.5t-125.5 82t-85 132t-31 178.5zM383 717h143v182h29l119 -188l153 24l-131 197q94 41 95 145q0 80 -53.5 122t-151.5 42h-203v-524zM526 993v146h43q80 0 80 -72q0 -74 -82 -74h-41z" />
<glyph unicode="&#xaf;" d="M160 1145h610v213h-610v-213z" />
<glyph unicode="&#xb0;" horiz-adv-x="913" d="M94 1034q0 -80 26.5 -145.5t75 -113.5t115 -74.5t146.5 -26.5t146.5 26.5t114.5 74.5t74.5 113.5t26.5 145.5q0 78 -26.5 144.5t-74.5 114.5t-114.5 76t-146.5 28t-146.5 -28t-115 -76t-75 -114.5t-26.5 -144.5zM279 1034q0 82 49 137.5t129 55.5t129 -55.5t49 -137.5 q0 -84 -49 -137t-129 -53t-129 53t-49 137z" />
<glyph unicode="&#xb1;" horiz-adv-x="1249" d="M53 276h647v-276h316v276h194v236h-194v367l-311 -68v-299h-322l551 813l-297 70l-584 -889v-230z" />
<glyph unicode="&#xb2;" horiz-adv-x="1024" d="M51 -410h922v2048h-922v-2048z" />
<glyph unicode="&#xb3;" horiz-adv-x="1024" d="M51 -410h922v2048h-922v-2048z" />
<glyph unicode="&#xb4;" d="M233 1120h197l301 248l-375 62z" />
<glyph unicode="&#xb6;" horiz-adv-x="1126" d="M72 924q0 -115 36.5 -200t104.5 -143.5t164 -89t215 -34.5l74 450v336h133v-1243h186v1384h-387q-246 0 -386 -120.5t-140 -339.5z" />
<glyph unicode="&#xb7;" horiz-adv-x="528" d="M100 418h332v354h-332v-354z" />
<glyph unicode="&#xb8;" d="M217 -373h199l284 217l-372 62z" />
<glyph unicode="&#xb9;" horiz-adv-x="1024" d="M51 -410h922v2048h-922v-2048z" />
<glyph unicode="&#xba;" horiz-adv-x="823" d="M78 1053q0 -80 24.5 -142.5t69.5 -106.5t105.5 -67.5t132.5 -23.5q74 0 135 23.5t105 67.5t69.5 106.5t25.5 142.5t-25.5 142t-69.5 107.5t-105.5 69t-134.5 23.5q-72 0 -132.5 -23.5t-105.5 -69t-69.5 -107.5t-24.5 -142zM98 455h633l-24 149h-609v-149zM289 1053 q0 78 30.5 126t90.5 48q59 0 92 -48t33 -126t-33 -126t-92 -48t-90 48t-31 126z" />
<glyph unicode="&#xbb;" horiz-adv-x="1169" d="M74 0h223l340 500l-350 520l-201 -43l209 -477zM561 0h223l340 500l-348 520l-203 -43l211 -477z" />
<glyph unicode="&#xbc;" horiz-adv-x="1024" d="M51 -410h922v2048h-922v-2048z" />
<glyph unicode="&#xbd;" horiz-adv-x="1024" d="M51 -410h922v2048h-922v-2048z" />
<glyph unicode="&#xbe;" horiz-adv-x="1024" d="M51 -410h922v2048h-922v-2048z" />
<glyph unicode="&#xbf;" horiz-adv-x="1036" d="M51 367q0 -186 120 -290t337 -104q154 0 268.5 41t206.5 103l-43 286q-90 -63 -189.5 -104t-197.5 -41q-86 0 -130 36t-44 99q0 74 61.5 123t210.5 96l64 21l-23 311l-203 -47l-6 -68q-213 -68 -322.5 -176t-109.5 -286zM436 1061h332v352h-332v-352z" />
<glyph unicode="&#xc0;" horiz-adv-x="1437" d="M27 0h342l98 293h485l107 -307l352 57l-491 1376h-385zM326 1763l299 -247h202l-122 309zM549 567l160 492l159 -492h-319z" />
<glyph unicode="&#xc1;" horiz-adv-x="1437" d="M27 0h342l98 293h485l107 -307l352 57l-491 1376h-385zM549 567l160 492l159 -492h-319zM621 1516h196l301 247l-375 62z" />
<glyph unicode="&#xc2;" horiz-adv-x="1437" d="M27 0h342l98 293h485l107 -307l352 57l-491 1376h-385zM373 1497h196l152 119l158 -127l182 35l-197 274h-282zM549 567l160 492l159 -492h-319z" />
<glyph unicode="&#xc3;" horiz-adv-x="1437" d="M27 0h342l98 293h485l107 -307l352 57l-491 1376h-385zM377 1540l145 -31q12 53 27.5 71.5t38.5 18.5t48.5 -9t84.5 -34q43 -18 73.5 -29t71.5 -11q76 0 125.5 63t69.5 221l-146 35q-12 -53 -27.5 -72.5t-37.5 -19.5q-23 0 -49.5 8t-83.5 35q-43 20 -74 30.5t-72 10.5 q-78 0 -126 -63.5t-68 -223.5zM549 567l160 492l159 -492h-319z" />
<glyph unicode="&#xc4;" horiz-adv-x="1437" d="M27 0h342l98 293h485l107 -307l352 57l-491 1376h-385zM383 1518h266v268h-266v-268zM549 567l160 492l159 -492h-319zM788 1518h267v268h-267v-268z" />
<glyph unicode="&#xc5;" horiz-adv-x="1437" d="M27 0h342l98 293h485l107 -307l352 57l-491 1376h-385zM449 1733q0 -92 67.5 -157t202.5 -65t202.5 65t67.5 157q0 90 -68.5 155.5t-201.5 65.5t-201.5 -65.5t-68.5 -155.5zM549 567l160 492l159 -492h-319zM616 1733q0 47 28 81.5t75 34.5t74.5 -34.5t27.5 -81.5 q0 -49 -27.5 -84t-74.5 -35t-75 34.5t-28 84.5z" />
<glyph unicode="&#xc6;" horiz-adv-x="1855" d="M4 0h358l140 293h401v-293h885v281h-555v305h455l-46 288h-409v259h536v280h-1079zM621 567l282 613v-613h-282z" />
<glyph unicode="&#xc7;" horiz-adv-x="1239" d="M78 705q0 -166 47 -301.5t135 -230.5t216 -146.5t288 -51.5q117 0 216 29t185 76l-45 287q-80 -45 -157.5 -72t-163.5 -27q-80 0 -147.5 29t-118 84t-78 137t-27.5 189q0 209 96.5 323.5t255.5 114.5q92 0 171 -33t145 -82l49 316q-78 43 -174.5 67.5t-216.5 24.5 q-152 0 -276 -53.5t-213 -149.5t-138 -231.5t-49 -298.5zM424 -379h199l284 217l-372 62z" />
<glyph unicode="&#xc8;" horiz-adv-x="1095" d="M129 0h899v281h-555v305h455l-45 288h-410v259h537v280h-881v-1413zM221 1765l299 -247h203l-123 309z" />
<glyph unicode="&#xc9;" horiz-adv-x="1095" d="M129 0h899v281h-555v305h455l-45 288h-410v259h537v280h-881v-1413zM401 1518h197l301 247l-375 62z" />
<glyph unicode="&#xca;" horiz-adv-x="1095" d="M129 0h899v281h-555v305h455l-45 288h-410v259h537v280h-881v-1413zM217 1518h197l151 118l158 -127l182 35l-196 275h-283z" />
<glyph unicode="&#xcb;" horiz-adv-x="1095" d="M129 0h899v281h-555v305h455l-45 288h-410v259h537v280h-881v-1413zM227 1520h267v268h-267v-268zM633 1520h266v268h-266v-268z" />
<glyph unicode="&#xcc;" horiz-adv-x="624" d="M-76 1765l299 -247h203l-123 309zM137 0h350v1413h-350v-1413z" />
<glyph unicode="&#xcd;" horiz-adv-x="624" d="M137 0h350v1413h-350v-1413zM203 1518h196l301 247l-374 62z" />
<glyph unicode="&#xce;" horiz-adv-x="624" d="M-33 1499h197l151 119l158 -127l182 35l-196 274h-283zM137 0h350v1413h-350v-1413z" />
<glyph unicode="&#xcf;" horiz-adv-x="624" d="M-23 1520h267v268h-267v-268zM137 0h350v1413h-350v-1413zM383 1520h266v268h-266v-268z" />
<glyph unicode="&#xd0;" horiz-adv-x="1515" d="M20 870l48 -295h135v-575h493q178 0 316.5 51t232.5 145.5t143.5 224.5t49.5 288t-48.5 287.5t-142.5 222t-234.5 143.5t-324.5 51h-485v-543h-183zM543 272v306h258v288h-258v275h135q90 0 165 -25.5t128 -80t82.5 -136t29.5 -192.5q0 -227 -108.5 -331t-296.5 -104 h-135z" />
<glyph unicode="&#xd1;" horiz-adv-x="1443" d="M129 0h326v846l557 -846h303v1413h-326v-790l-520 790h-340v-1413zM383 1518l145 -31q12 53 27.5 71.5t38.5 18.5t48.5 -9t84.5 -34q43 -18 73.5 -29.5t71.5 -11.5q76 0 125.5 63.5t69.5 221.5l-145 34q-12 -53 -27.5 -72.5t-38.5 -19.5t-49.5 8.5t-83.5 34.5 q-43 20 -74 30.5t-71 10.5q-78 0 -126.5 -63.5t-68.5 -222.5z" />
<glyph unicode="&#xd2;" horiz-adv-x="1505" d="M78 705q0 -164 48 -298.5t136 -230.5t212 -149.5t276 -53.5q154 0 279.5 53.5t213.5 150.5t136 232.5t48 299.5t-48 298t-135 230t-212 149.5t-278 53.5q-154 0 -279 -53.5t-213 -150.5t-136 -232.5t-48 -298.5zM365 1784l299 -248h202l-123 309zM428 707q0 211 85 334.5 t239 123.5t238.5 -123.5t84.5 -334.5t-85 -335t-238 -124q-154 0 -239 124t-85 335z" />
<glyph unicode="&#xd3;" horiz-adv-x="1505" d="M78 705q0 -164 48 -298.5t136 -230.5t212 -149.5t276 -53.5q154 0 279.5 53.5t213.5 150.5t136 232.5t48 299.5t-48 298t-135 230t-212 149.5t-278 53.5q-154 0 -279 -53.5t-213 -150.5t-136 -232.5t-48 -298.5zM428 707q0 211 85 334.5t239 123.5t238.5 -123.5 t84.5 -334.5t-85 -335t-238 -124q-154 0 -239 124t-85 335zM633 1536h196l301 248l-374 61z" />
<glyph unicode="&#xd4;" horiz-adv-x="1505" d="M78 705q0 -164 48 -298.5t136 -230.5t212 -149.5t276 -53.5q154 0 279.5 53.5t213.5 150.5t136 232.5t48 299.5t-48 298t-135 230t-212 149.5t-278 53.5q-154 0 -279 -53.5t-213 -150.5t-136 -232.5t-48 -298.5zM406 1526h196l152 119l157 -127l183 34l-197 275h-283z M428 707q0 211 85 334.5t239 123.5t238.5 -123.5t84.5 -334.5t-85 -335t-238 -124q-154 0 -239 124t-85 335z" />
<glyph unicode="&#xd5;" horiz-adv-x="1505" d="M78 705q0 -164 48 -298.5t136 -230.5t212 -149.5t276 -53.5q154 0 279.5 53.5t213.5 150.5t136 232.5t48 299.5t-48 298t-135 230t-212 149.5t-278 53.5q-154 0 -279 -53.5t-213 -150.5t-136 -232.5t-48 -298.5zM410 1563l145 -31q12 53 27.5 71.5t38.5 18.5t48 -9 t85 -34q43 -18 73.5 -29.5t71.5 -11.5q76 0 125.5 63.5t69.5 221.5l-146 35q-12 -53 -27.5 -73t-37.5 -20q-23 0 -49.5 8.5t-83.5 34.5q-43 20 -74 30.5t-72 10.5q-78 0 -126 -63.5t-68 -222.5zM428 707q0 211 85 334.5t239 123.5t238.5 -123.5t84.5 -334.5t-85 -335 t-238 -124q-154 0 -239 124t-85 335z" />
<glyph unicode="&#xd6;" horiz-adv-x="1505" d="M78 705q0 -164 48 -298.5t136 -230.5t212 -149.5t276 -53.5q154 0 279.5 53.5t213.5 150.5t136 232.5t48 299.5t-48 298t-135 230t-212 149.5t-278 53.5q-154 0 -279 -53.5t-213 -150.5t-136 -232.5t-48 -298.5zM416 1538h266v268h-266v-268zM428 707q0 211 85 334.5 t239 123.5t238.5 -123.5t84.5 -334.5t-85 -335t-238 -124q-154 0 -239 124t-85 335zM821 1538h266v268h-266v-268z" />
<glyph unicode="&#xd7;" horiz-adv-x="1024" d="M51 -410h922v2048h-922v-2048z" />
<glyph unicode="&#xd8;" horiz-adv-x="1505" d="M53 29l211 -47l96 114q164 -123 396 -123q152 0 275.5 53.5t211.5 149.5t136 230.5t48 298.5q0 285 -141 473l168 206l-213 48l-94 -115q-82 59 -181.5 91t-215.5 32q-152 0 -275 -53.5t-212 -149.5t-137 -230.5t-48 -297.5q0 -141 36 -261t105 -215zM424 707 q0 106 22.5 193t64.5 148.5t102.5 95.5t138.5 34q124 0 206 -88l-497 -607q-37 94 -37 224zM547 324l500 606q34 -94 34 -223q0 -106 -22.5 -193.5t-64.5 -149t-103.5 -95t-138.5 -33.5q-123 0 -205 88z" />
<glyph unicode="&#xd9;" horiz-adv-x="1409" d="M113 559q0 -147 43 -256.5t120.5 -182.5t186 -108t237.5 -35t238 36t188.5 109t124.5 182.5t45 256.5v852h-352v-856q0 -135 -59.5 -210t-179.5 -75q-119 0 -179.5 76t-60.5 213v852h-352v-854zM328 1733l299 -248h202l-122 309z" />
<glyph unicode="&#xda;" horiz-adv-x="1409" d="M113 559q0 -147 43 -256.5t120.5 -182.5t186 -108t237.5 -35t238 36t188.5 109t124.5 182.5t45 256.5v852h-352v-856q0 -135 -59.5 -210t-179.5 -75q-119 0 -179.5 76t-60.5 213v852h-352v-854zM582 1485h196l301 248l-374 61z" />
<glyph unicode="&#xdb;" horiz-adv-x="1409" d="M113 559q0 -147 43 -256.5t120.5 -182.5t186 -108t237.5 -35t238 36t188.5 109t124.5 182.5t45 256.5v852h-352v-856q0 -135 -59.5 -210t-179.5 -75q-119 0 -179.5 76t-60.5 213v852h-352v-854zM358 1493h197l152 119l157 -127l183 35l-197 274h-283z" />
<glyph unicode="&#xdc;" horiz-adv-x="1409" d="M113 559q0 -147 43 -256.5t120.5 -182.5t186 -108t237.5 -35t238 36t188.5 109t124.5 182.5t45 256.5v852h-352v-856q0 -135 -59.5 -210t-179.5 -75q-119 0 -179.5 76t-60.5 213v852h-352v-854zM369 1495h266v268h-266v-268zM774 1495h266v268h-266v-268z" />
<glyph unicode="&#xdd;" horiz-adv-x="1376" d="M16 1376l488 -860v-516h352v520l508 893h-367l-301 -573l-307 587zM584 1475h196l301 247l-374 62z" />
<glyph unicode="&#xde;" horiz-adv-x="1191" d="M129 0h350v252h88q129 0 233.5 30.5t179.5 91t116 150.5t41 211q0 229 -147.5 345t-407.5 116h-103v217h-350v-1413zM475 516v416h88q236 0 236 -203q0 -111 -62.5 -162t-179.5 -51h-82z" />
<glyph unicode="&#xdf;" horiz-adv-x="1255" d="M27 752h139v-752h309v1061q0 78 31 122t90 44t89 -40t30 -114q0 -90 -36 -176t-89 -170l31 -203q88 -27 144 -54.5t90 -54t47 -53t13 -53.5q0 -47 -27.5 -69.5t-74.5 -22.5q-49 0 -103.5 17.5t-107.5 50.5l-39 -234q63 -31 135 -48t150 -17q166 0 264 83.5t98 249.5 q0 154 -93 244t-273 154q72 82 121 170t49 213q0 78 -25.5 144.5t-77 114.5t-129 74.5t-182.5 26.5q-211 0 -322.5 -108.5t-111.5 -313.5v-34h-139v-252z" />
<glyph unicode="&#xe0;" horiz-adv-x="1038" d="M57 258q0 -137 76 -207.5t197 -70.5q104 0 179 39.5t136 105.5l21 -125h274v672q0 193 -102.5 270.5t-311.5 77.5q-123 0 -222 -21.5t-185 -56.5l37 -233q80 35 158.5 55t164.5 20q152 0 152 -127v-18q-295 -27 -434.5 -116t-139.5 -265zM152 1368l299 -248h202l-123 310 zM362 299q0 33 12.5 62.5t43.5 54t82 43t131 30.5v-213q-86 -76 -172 -75q-43 0 -70 25.5t-27 72.5z" />
<glyph unicode="&#xe1;" horiz-adv-x="1038" d="M57 258q0 -137 76 -207.5t197 -70.5q104 0 179 39.5t136 105.5l21 -125h274v672q0 193 -102.5 270.5t-311.5 77.5q-123 0 -222 -21.5t-185 -56.5l37 -233q80 35 158.5 55t164.5 20q152 0 152 -127v-18q-295 -27 -434.5 -116t-139.5 -265zM362 299q0 33 12.5 62.5t43.5 54 t82 43t131 30.5v-213q-86 -76 -172 -75q-43 0 -70 25.5t-27 72.5zM381 1120h197l301 248l-375 62z" />
<glyph unicode="&#xe2;" horiz-adv-x="1038" d="M57 258q0 -137 76 -207.5t197 -70.5q104 0 179 39.5t136 105.5l21 -125h274v672q0 193 -102.5 270.5t-311.5 77.5q-123 0 -222 -21.5t-185 -56.5l37 -233q80 35 158.5 55t164.5 20q152 0 152 -127v-18q-295 -27 -434.5 -116t-139.5 -265zM174 1120h197l151 119l158 -127 l182 35l-196 274h-283zM362 299q0 33 12.5 62.5t43.5 54t82 43t131 30.5v-213q-86 -76 -172 -75q-43 0 -70 25.5t-27 72.5z" />
<glyph unicode="&#xe3;" horiz-adv-x="1038" d="M57 258q0 -137 76 -207.5t197 -70.5q104 0 179 39.5t136 105.5l21 -125h274v672q0 193 -102.5 270.5t-311.5 77.5q-123 0 -222 -21.5t-185 -56.5l37 -233q80 35 158.5 55t164.5 20q152 0 152 -127v-18q-295 -27 -434.5 -116t-139.5 -265zM184 1145l146 -31 q12 53 27.5 71.5t37.5 18.5q23 0 48.5 -9t84.5 -34q43 -18 74 -29.5t72 -11.5q76 0 125 63.5t69 221.5l-145 35q-12 -53 -27.5 -72.5t-38.5 -19.5t-49 8t-84 35q-43 20 -73.5 30.5t-71.5 10.5q-78 0 -126 -63.5t-69 -223.5zM362 299q0 33 12.5 62.5t43.5 54t82 43t131 30.5 v-213q-86 -76 -172 -75q-43 0 -70 25.5t-27 72.5z" />
<glyph unicode="&#xe4;" horiz-adv-x="1038" d="M57 258q0 -137 76 -207.5t197 -70.5q104 0 179 39.5t136 105.5l21 -125h274v672q0 193 -102.5 270.5t-311.5 77.5q-123 0 -222 -21.5t-185 -56.5l37 -233q80 35 158.5 55t164.5 20q152 0 152 -127v-18q-295 -27 -434.5 -116t-139.5 -265zM188 1122h267v269h-267v-269z M362 299q0 33 12.5 62.5t43.5 54t82 43t131 30.5v-213q-86 -76 -172 -75q-43 0 -70 25.5t-27 72.5zM594 1122h266v269h-266v-269z" />
<glyph unicode="&#xe5;" horiz-adv-x="1038" d="M57 258q0 -137 76 -207.5t197 -70.5q104 0 179 39.5t136 105.5l21 -125h274v672q0 193 -102.5 270.5t-311.5 77.5q-123 0 -222 -21.5t-185 -56.5l37 -233q80 35 158.5 55t164.5 20q152 0 152 -127v-18q-295 -27 -434.5 -116t-139.5 -265zM250 1337q0 -92 67.5 -156.5 t202.5 -64.5t203 64.5t68 156.5q0 90 -69 156t-202 66t-201.5 -66t-68.5 -156zM362 299q0 33 12.5 62.5t43.5 54t82 43t131 30.5v-213q-86 -76 -172 -75q-43 0 -70 25.5t-27 72.5zM418 1337q0 47 27.5 82t74.5 35t75 -35t28 -82q0 -49 -28 -83.5t-75 -34.5t-74.5 34.5 t-27.5 83.5z" />
<glyph unicode="&#xe6;" horiz-adv-x="1599" d="M57 256q0 -139 89.5 -207.5t226.5 -68.5q104 0 193 38.5t175 110.5q70 -76 171.5 -112.5t226.5 -36.5q119 0 218 29.5t181 82.5l-33 217q-82 -47 -163.5 -75.5t-165.5 -28.5q-100 0 -167 50t-79 169h604q2 12 3 34.5t1 45.5q0 109 -25.5 204t-79 165.5t-133 110.5 t-190.5 40q-96 0 -167 -36t-124 -101q-45 72 -115.5 102.5t-193.5 30.5q-111 0 -208 -21.5t-183 -56.5l37 -233q80 35 158.5 55t164.5 20q78 0 112 -30.5t34 -96.5v-18q-293 -29 -430.5 -119t-137.5 -264zM362 303q0 31 12.5 58.5t41 51t79 43t128.5 31.5v-2q0 -57 8 -106 t22 -96q-90 -82 -184 -82q-49 0 -78 24.5t-29 77.5zM930 594q6 117 49 173t106 56q146 0 158 -229h-313z" />
<glyph unicode="&#xe7;" horiz-adv-x="923" d="M57 494q0 -121 35 -216.5t99.5 -161t153.5 -100t198 -34.5q90 0 166.5 21.5t152.5 68.5l-37 252q-66 -41 -120 -59.5t-109 -18.5q-94 0 -159.5 63.5t-65.5 192.5q0 127 60.5 189.5t154.5 62.5q61 0 114.5 -17.5t112.5 -56.5l41 264q-61 35 -134 55.5t-165 20.5 q-102 0 -192.5 -33t-158 -98.5t-107.5 -163.5t-40 -231zM252 -379h199l284 217l-373 62z" />
<glyph unicode="&#xe8;" horiz-adv-x="1034" d="M57 498q0 -135 38 -232.5t106.5 -161t164 -94t207.5 -30.5q119 0 218.5 29.5t181.5 82.5l-31 217q-84 -47 -165 -75.5t-165 -28.5q-102 0 -167.5 50t-77.5 169h602q4 12 5 34.5t1 45.5q0 109 -26.5 204t-81 165.5t-138.5 110.5t-199 40q-102 0 -189 -36t-149.5 -104.5 t-98.5 -165.5t-36 -220zM133 1368l299 -248h203l-123 310zM365 594q8 117 50 173t107 56q142 0 158 -229h-315z" />
<glyph unicode="&#xe9;" horiz-adv-x="1034" d="M57 498q0 -135 38 -232.5t106.5 -161t164 -94t207.5 -30.5q119 0 218.5 29.5t181.5 82.5l-31 217q-84 -47 -165 -75.5t-165 -28.5q-102 0 -167.5 50t-77.5 169h602q4 12 5 34.5t1 45.5q0 109 -26.5 204t-81 165.5t-138.5 110.5t-199 40q-102 0 -189 -36t-149.5 -104.5 t-98.5 -165.5t-36 -220zM365 594q8 117 50 173t107 56q142 0 158 -229h-315zM401 1120h197l301 248l-375 62z" />
<glyph unicode="&#xea;" horiz-adv-x="1034" d="M57 498q0 -135 38 -232.5t106.5 -161t164 -94t207.5 -30.5q119 0 218.5 29.5t181.5 82.5l-31 217q-84 -47 -165 -75.5t-165 -28.5q-102 0 -167.5 50t-77.5 169h602q4 12 5 34.5t1 45.5q0 109 -26.5 204t-81 165.5t-138.5 110.5t-199 40q-102 0 -189 -36t-149.5 -104.5 t-98.5 -165.5t-36 -220zM182 1120h197l151 119l158 -127l182 35l-196 274h-283zM365 594q8 117 50 173t107 56q142 0 158 -229h-315z" />
<glyph unicode="&#xeb;" horiz-adv-x="1034" d="M57 498q0 -135 38 -232.5t106.5 -161t164 -94t207.5 -30.5q119 0 218.5 29.5t181.5 82.5l-31 217q-84 -47 -165 -75.5t-165 -28.5q-102 0 -167.5 50t-77.5 169h602q4 12 5 34.5t1 45.5q0 109 -26.5 204t-81 165.5t-138.5 110.5t-199 40q-102 0 -189 -36t-149.5 -104.5 t-98.5 -165.5t-36 -220zM193 1122h266v269h-266v-269zM365 594q8 117 50 173t107 56q142 0 158 -229h-315zM598 1122h266v269h-266v-269z" />
<glyph unicode="&#xec;" horiz-adv-x="536" d="M-63 1368l266 -248h180l-109 310zM117 0h309v1004h-309v-1004z" />
<glyph unicode="&#xed;" horiz-adv-x="536" d="M117 0h309v1004h-309v-1004zM160 1120h174l268 248l-334 62z" />
<glyph unicode="&#xee;" horiz-adv-x="536" d="M-41 1120h178l135 119l142 -127l164 35l-177 274h-256zM117 0h309v1004h-309v-1004z" />
<glyph unicode="&#xef;" horiz-adv-x="536" d="M-18 1122h231v269h-231v-269zM117 0h309v1004h-309v-1004zM324 1122h231v269h-231v-269z" />
<glyph unicode="&#xf0;" horiz-adv-x="1103" d="M59 461q0 -117 36 -207t99.5 -151.5t147.5 -93.5t182 -32q207 0 336 132q86 88 133 220t47 310q0 236 -80.5 399.5t-234.5 270.5l100 133l-176 37l-63 -93q-63 29 -135 51.5t-150 39.5l-37 -240q45 -14 87 -28.5t81 -30.5l-104 -148h178l57 76q72 -53 116 -122t54 -163 q-125 119 -293 119q-80 0 -149.5 -34t-120.5 -96t-81 -151.5t-30 -197.5zM356 453q0 121 47.5 184t124.5 63q53 0 109.5 -22.5t103.5 -63.5q2 -4 2 -18q-4 -186 -56 -281.5t-144 -95.5q-86 0 -136.5 61.5t-50.5 172.5z" />
<glyph unicode="&#xf1;" horiz-adv-x="1099" d="M106 0h310v659q41 41 83 66t87 25q55 0 78.5 -34t23.5 -87v-629h311v713q0 147 -71.5 229t-212.5 82q-96 0 -171 -46t-143 -112l-22 138h-273v-1004zM217 1145l145 -31q12 53 28 71.5t38 18.5q23 0 48.5 -9t84.5 -34q43 -18 74 -29.5t72 -11.5q76 0 125 63.5t69 221.5 l-145 35q-12 -53 -27.5 -72.5t-38.5 -19.5t-49.5 8t-83.5 35q-43 20 -73.5 30.5t-71.5 10.5q-78 0 -126 -63.5t-69 -223.5z" />
<glyph unicode="&#xf2;" horiz-adv-x="1079" d="M57 500q0 -121 36 -217.5t100.5 -164t151.5 -103t192 -35.5q104 0 193 36.5t153.5 104t101.5 164t37 217.5t-37 217t-101.5 163.5t-152.5 104.5t-192 37t-192.5 -37t-153 -104.5t-100.5 -164.5t-36 -218zM141 1368l299 -248h203l-123 310zM356 502q0 123 46.5 195.5 t136.5 72.5t137 -73.5t47 -196.5t-47 -197t-137 -74q-88 0 -135.5 75t-47.5 198z" />
<glyph unicode="&#xf3;" horiz-adv-x="1079" d="M57 500q0 -121 36 -217.5t100.5 -164t151.5 -103t192 -35.5q104 0 193 36.5t153.5 104t101.5 164t37 217.5t-37 217t-101.5 163.5t-152.5 104.5t-192 37t-192.5 -37t-153 -104.5t-100.5 -164.5t-36 -218zM356 502q0 123 46.5 195.5t136.5 72.5t137 -73.5t47 -196.5 t-47 -197t-137 -74q-88 0 -135.5 75t-47.5 198zM436 1120h197l301 248l-375 62z" />
<glyph unicode="&#xf4;" horiz-adv-x="1079" d="M57 500q0 -121 36 -217.5t100.5 -164t151.5 -103t192 -35.5q104 0 193 36.5t153.5 104t101.5 164t37 217.5t-37 217t-101.5 163.5t-152.5 104.5t-192 37t-192.5 -37t-153 -104.5t-100.5 -164.5t-36 -218zM193 1120h196l152 119l157 -127l183 35l-197 274h-283zM356 502 q0 123 46.5 195.5t136.5 72.5t137 -73.5t47 -196.5t-47 -197t-137 -74q-88 0 -135.5 75t-47.5 198z" />
<glyph unicode="&#xf5;" horiz-adv-x="1079" d="M57 500q0 -121 36 -217.5t100.5 -164t151.5 -103t192 -35.5q104 0 193 36.5t153.5 104t101.5 164t37 217.5t-37 217t-101.5 163.5t-152.5 104.5t-192 37t-192.5 -37t-153 -104.5t-100.5 -164.5t-36 -218zM199 1145l145 -31q12 53 27.5 71.5t38.5 18.5t48 -9t85 -34 q43 -18 73.5 -29.5t71.5 -11.5q76 0 125.5 63.5t69.5 221.5l-146 35q-12 -53 -27.5 -72.5t-37.5 -19.5q-23 0 -49.5 8t-83.5 35q-43 20 -74 30.5t-72 10.5q-78 0 -126 -63.5t-68 -223.5zM356 502q0 123 46.5 195.5t136.5 72.5t137 -73.5t47 -196.5t-47 -197t-137 -74 q-88 0 -135.5 75t-47.5 198z" />
<glyph unicode="&#xf6;" horiz-adv-x="1079" d="M57 500q0 -121 36 -217.5t100.5 -164t151.5 -103t192 -35.5q104 0 193 36.5t153.5 104t101.5 164t37 217.5t-37 217t-101.5 163.5t-152.5 104.5t-192 37t-192.5 -37t-153 -104.5t-100.5 -164.5t-36 -218zM203 1122h266v269h-266v-269zM356 502q0 123 46.5 195.5 t136.5 72.5t137 -73.5t47 -196.5t-47 -197t-137 -74q-88 0 -135.5 75t-47.5 198zM608 1122h266v269h-266v-269z" />
<glyph unicode="&#xf7;" horiz-adv-x="1171" d="M111 573h950v238h-950v-238zM449 152h274v266h-274v-266zM449 967h274v266h-274v-266z" />
<glyph unicode="&#xf8;" horiz-adv-x="1079" d="M37 20l166 -36l61 79q119 -84 279 -83q100 0 188 36.5t152.5 104t101.5 164t37 217.5q0 205 -100 334l120 145l-165 39l-62 -80q-59 41 -130 62.5t-148 21.5q-102 0 -189.5 -37t-151 -104.5t-100.5 -164.5t-37 -218q0 -102 26 -185.5t73 -148.5zM350 502q0 127 48 205.5 t141 78.5q35 0 63 -12t51 -35l-288 -364q-8 29 -11.5 60.5t-3.5 66.5zM424 264l291 365q18 -55 18 -129q0 -127 -50 -205t-144 -78q-68 0 -115 47z" />
<glyph unicode="&#xf9;" horiz-adv-x="1099" d="M100 289q0 -147 72 -228t213 -81q94 0 169 45t144 112l23 -137h272v1004h-309v-662q-41 -41 -83 -65.5t-87 -24.5q-55 0 -79.5 35t-24.5 88v629h-310v-715zM166 1368l299 -248h203l-123 310z" />
<glyph unicode="&#xfa;" horiz-adv-x="1099" d="M100 289q0 -147 72 -228t213 -81q94 0 169 45t144 112l23 -137h272v1004h-309v-662q-41 -41 -83 -65.5t-87 -24.5q-55 0 -79.5 35t-24.5 88v629h-310v-715zM414 1120h196l301 248l-374 62z" />
<glyph unicode="&#xfb;" horiz-adv-x="1099" d="M100 289q0 -147 72 -228t213 -81q94 0 169 45t144 112l23 -137h272v1004h-309v-662q-41 -41 -83 -65.5t-87 -24.5q-55 0 -79.5 35t-24.5 88v629h-310v-715zM203 1120h196l152 119l158 -127l182 35l-197 274h-282z" />
<glyph unicode="&#xfc;" horiz-adv-x="1099" d="M100 289q0 -147 72 -228t213 -81q94 0 169 45t144 112l23 -137h272v1004h-309v-662q-41 -41 -83 -65.5t-87 -24.5q-55 0 -79.5 35t-24.5 88v629h-310v-715zM215 1122h266v269h-266v-269zM621 1122h266v269h-266v-269z" />
<glyph unicode="&#xfd;" horiz-adv-x="1044" d="M18 979l365 -981l-12 -31q-25 -53 -68 -74.5t-96 -21.5q-45 0 -71.5 4t-51.5 12l39 -247q23 -4 46.5 -8.5t70.5 -4.5q82 0 147.5 18.5t117.5 59.5t92 108.5t75 166.5l356 1024h-299l-184 -619l-195 633zM434 1102h197l301 248l-375 61z" />
<glyph unicode="&#xfe;" horiz-adv-x="1114" d="M106 -381l310 47v359q43 -14 93 -24.5t118 -10.5q82 0 158.5 30.5t135 96t93.5 167t35 244.5q0 127 -28 220.5t-76 155t-113.5 91t-143.5 29.5q-92 0 -158.5 -42t-113.5 -95v592l-310 -49v-1811zM416 264v381q39 47 80 75t92 28q66 0 108.5 -56.5t42.5 -183.5 q0 -147 -52 -211t-132 -64q-45 0 -75.5 7.5t-63.5 23.5z" />
<glyph unicode="&#xff;" horiz-adv-x="1044" d="M18 979l365 -981l-12 -31q-25 -53 -68 -74.5t-96 -21.5q-45 0 -71.5 4t-51.5 12l39 -247q23 -4 46.5 -8.5t70.5 -4.5q82 0 147.5 18.5t117.5 59.5t92 108.5t75 166.5l356 1024h-299l-184 -619l-195 633zM205 1122h266v269h-266v-269zM610 1122h267v269h-267v-269z" />
<glyph unicode="&#x152;" horiz-adv-x="1859" d="M80 705q0 -158 48 -287t141 -222.5t233.5 -144.5t324.5 -51h965v281h-555v305h455l-45 288h-410v259h537v280h-955q-178 0 -316 -51t-232.5 -145.5t-142.5 -224.5t-48 -287zM430 707q0 227 109.5 330.5t298.5 103.5h59v-869h-59q-90 0 -166 26t-129.5 80t-83 136 t-29.5 193z" />
<glyph unicode="&#x153;" horiz-adv-x="1699" d="M57 500q0 -121 36 -217.5t99.5 -164t148.5 -103t183 -35.5q117 0 202 46t144 124q119 -170 377 -170q123 0 216 29.5t175 82.5l-30 217q-84 -47 -165 -75.5t-165 -28.5q-100 0 -168 50t-80 169h604q2 12 3 34.5t1 45.5q0 109 -25.5 204t-78.5 165.5t-134 110.5t-192 40 t-193.5 -46t-142.5 -126q-53 84 -139 128t-198 44q-102 0 -189.5 -37t-152 -104.5t-100.5 -164.5t-36 -218zM356 502q0 123 46.5 195.5t136.5 72.5t137 -73.5t47 -196.5t-47 -197t-137 -74q-88 0 -135.5 75t-47.5 198zM1030 594q6 117 49 173t109 56q139 0 155 -229h-313z " />
<glyph unicode="&#x178;" horiz-adv-x="1376" d="M16 1376l488 -860v-516h352v520l508 893h-367l-301 -573l-307 587zM360 1495h267v268h-267v-268zM766 1495h266v268h-266v-268z" />
<glyph unicode="&#x2c6;" d="M119 1120h196l152 119l158 -127l182 35l-197 274h-282z" />
<glyph unicode="&#x2dc;" d="M123 1145l145 -31q12 53 27.5 71.5t38.5 18.5t48.5 -9t84.5 -34q43 -18 73.5 -29.5t71.5 -11.5q76 0 125.5 63.5t69.5 221.5l-145 35q-12 -53 -28 -72.5t-38 -19.5q-23 0 -49.5 8t-83.5 35q-43 20 -74 30.5t-72 10.5q-78 0 -126 -63.5t-68 -223.5z" />
<glyph unicode="&#x2000;" horiz-adv-x="977" />
<glyph unicode="&#x2001;" horiz-adv-x="1954" />
<glyph unicode="&#x2002;" horiz-adv-x="977" />
<glyph unicode="&#x2003;" horiz-adv-x="1954" />
<glyph unicode="&#x2004;" horiz-adv-x="651" />
<glyph unicode="&#x2005;" horiz-adv-x="488" />
<glyph unicode="&#x2006;" horiz-adv-x="325" />
<glyph unicode="&#x2007;" horiz-adv-x="325" />
<glyph unicode="&#x2008;" horiz-adv-x="244" />
<glyph unicode="&#x2009;" horiz-adv-x="390" />
<glyph unicode="&#x200a;" horiz-adv-x="108" />
<glyph unicode="&#x2010;" horiz-adv-x="724" d="M84 449h559v294h-559v-294z" />
<glyph unicode="&#x2011;" horiz-adv-x="724" d="M84 449h559v294h-559v-294z" />
<glyph unicode="&#x2012;" horiz-adv-x="724" d="M84 449h559v294h-559v-294z" />
<glyph unicode="&#x2013;" d="M84 451h762v288h-762v-288z" />
<glyph unicode="&#x2014;" horiz-adv-x="1859" d="M84 453h1692v284h-1692v-284z" />
<glyph unicode="&#x2018;" horiz-adv-x="528" d="M47 786h350l45 603l-188 43z" />
<glyph unicode="&#x2019;" horiz-adv-x="528" d="M88 811l188 -43l205 645h-350z" />
<glyph unicode="&#x201a;" horiz-adv-x="528" d="M76 -250l188 -43l205 645h-348z" />
<glyph unicode="&#x201c;" horiz-adv-x="985" d="M47 786h344l45 603l-182 43zM510 786h344l43 603l-182 43z" />
<glyph unicode="&#x201d;" horiz-adv-x="985" d="M88 811l182 -43l205 645h-344zM549 811l182 -43l207 645h-344z" />
<glyph unicode="&#x201e;" horiz-adv-x="985" d="M76 -250l182 -43l207 645h-344zM539 -250l182 -43l205 645h-344z" />
<glyph unicode="&#x2022;" horiz-adv-x="987" d="M143 705l52 -320l299 -47l301 47l49 320l-49 321l-301 47l-299 -47z" />
<glyph unicode="&#x2026;" horiz-adv-x="1593" d="M104 0h328v350h-328v-350zM635 0h326v350h-326v-350zM1163 0h326v350h-326v-350z" />
<glyph unicode="&#x202f;" horiz-adv-x="390" />
<glyph unicode="&#x2039;" horiz-adv-x="681" d="M45 502l350 -518l201 41l-211 477l223 502h-223z" />
<glyph unicode="&#x203a;" horiz-adv-x="681" d="M74 0h223l340 500l-350 520l-201 -43l209 -477z" />
<glyph unicode="&#x205f;" horiz-adv-x="488" />
<glyph unicode="&#x2122;" horiz-adv-x="1662" d="M55 1260h209v-553h191v553h225l-23 153h-602v-153zM727 707h168l31 440l131 -445h176l131 445l31 -440h194l-53 706h-236l-137 -461l-137 461h-246z" />
<glyph unicode="&#xe000;" horiz-adv-x="1013" d="M0 0v1014h1014v-1014h-1014z" />
<glyph unicode="&#xfb01;" horiz-adv-x="1236" d="M27 752h139v-752h309v752h219l-37 252h-182v94q0 123 123 123q33 0 60.5 -2.5t50.5 -6.5l-37 238q-27 4 -57.5 7t-67.5 3q-174 0 -277.5 -75.5t-103.5 -256.5v-124h-139v-252zM791 1303q0 -76 51 -121t125 -45t125 45t51 121t-51.5 120.5t-124.5 44.5q-74 0 -125 -45 t-51 -120zM811 0h311v1004h-311v-1004z" />
<glyph unicode="&#xfb02;" horiz-adv-x="1236" d="M27 752h139v-752h309v752h219l-37 252h-182v94q0 123 123 123q33 0 60.5 -2.5t50.5 -6.5l-37 238q-27 4 -57.5 7t-67.5 3q-174 0 -277.5 -75.5t-103.5 -256.5v-124h-139v-252zM811 0h311v1479l-311 -49v-1430z" />
</font>
</defs>
</svg>
